<svg width="54" height="54" viewBox="0 0 54 54" fill="none" xmlns="http://www.w3.org/2000/svg">
<rect width="54" height="54" rx="9" fill="#171D3F"/>
<path d="M23.5 16L14.6382 25.7946C14.2807 26.1898 14.2958 26.7958 14.6726 27.1726L23.5 36" stroke="#F5C34B" stroke-width="3" stroke-linecap="round"/>
<path d="M39.5 38C39.5 38.8284 40.1716 39.5 41 39.5C41.8284 39.5 42.5 38.8284 42.5 38H39.5ZM19.901 25.5721C19.3372 26.179 19.3721 27.1281 19.9791 27.692L29.8697 36.8803C30.4767 37.4441 31.4258 37.4092 31.9896 36.8022C32.5535 36.1953 32.5185 35.2462 31.9116 34.6824L23.1199 26.515L31.2873 17.7233C31.8511 17.1163 31.8162 16.1672 31.2092 15.6034C30.6023 15.0396 29.6532 15.0745 29.0893 15.6814L19.901 25.5721ZM42.5 38C42.5 34.4349 42.485 31.7028 42.1145 29.7289C41.9247 28.7179 41.6244 27.7947 41.1107 27.012C40.5787 26.2014 39.8669 25.6165 38.9841 25.2234C37.349 24.4954 35.1163 24.4398 32.3692 24.5341C30.9506 24.5828 29.3036 24.6788 27.4216 24.7836C25.5327 24.8888 23.3882 25.0041 20.9448 25.094L21.0552 28.092C23.5278 28.001 25.6952 27.8844 27.5885 27.7789C29.4887 27.6731 31.0941 27.5797 32.4722 27.5323C35.3186 27.4346 36.8568 27.5602 37.7638 27.964C38.152 28.1368 38.404 28.3555 38.6027 28.6581C38.8196 28.9887 39.017 29.4885 39.166 30.2823C39.473 31.9182 39.5 34.3233 39.5 38H42.5Z" fill="#F5C34B"/>
</svg>
