<svg width="16" height="20" viewBox="0 0 16 20" fill="none" xmlns="http://www.w3.org/2000/svg">
<path d="M6.4375 20H9.5625C9.99398 20 10.3438 19.6502 10.3438 19.2188C10.3438 18.7873 9.99398 18.4375 9.5625 18.4375H6.4375C6.00602 18.4375 5.65625 18.7873 5.65625 19.2188C5.65625 19.6502 6.00602 20 6.4375 20Z" fill="#041E42"/>
<path d="M8 0C7.56852 0 7.21875 0.349766 7.21875 0.78125V1.61855C4.57207 1.99879 2.53125 4.28102 2.53125 7.03125V11.8342C2.53125 12.1095 2.40723 12.36 2.2227 12.4575C1.44922 12.8659 0.96875 13.6605 0.96875 14.5312C0.96875 15.8236 2.02016 16.875 3.3125 16.875H12.6875C13.9798 16.875 15.0312 15.8236 15.0312 14.5312C15.0312 13.6605 14.5508 12.8659 13.7773 12.4575C13.5927 12.36 13.4688 12.1096 13.4688 11.8342V7.03125C13.4688 4.28102 11.4279 1.99879 8.78125 1.61855V0.78125C8.78125 0.349766 8.43148 0 8 0V0ZM11.9062 7.03125V11.8342C11.9062 12.6991 12.3436 13.4674 13.0477 13.8392C13.3074 13.9763 13.4688 14.2415 13.4688 14.5312C13.4688 14.962 13.1183 15.3125 12.6875 15.3125H3.3125C2.88172 15.3125 2.53125 14.962 2.53125 14.5312C2.53125 14.2415 2.69258 13.9763 2.95227 13.8392C3.65637 13.4674 4.09375 12.6991 4.09375 11.8342V7.03125C4.09375 4.87734 5.84609 3.125 8 3.125C10.1539 3.125 11.9062 4.87734 11.9062 7.03125Z" fill="#041E42"/>
</svg>
