<svg width="19" height="19" viewBox="0 0 19 19" fill="none" xmlns="http://www.w3.org/2000/svg">
<g clip-path="url(#clip0_1232_1640)">
<path d="M18.6567 14.9518L18.4221 14.6279C18.5745 14.5175 18.6086 14.3044 18.4981 14.152C18.3878 13.9996 18.1747 13.9655 18.0223 14.0759L17.7877 13.7519L18.0223 14.0759C17.2545 14.632 16.2455 14.8965 15.2592 14.8965C14.273 14.8965 13.264 14.632 12.4961 14.0759L12.7308 13.7519L12.4961 14.0759C12.3438 13.9655 12.1307 13.9996 12.0203 14.152L12.0203 14.152C11.91 14.3044 11.944 14.5174 12.0964 14.6279L18.6567 14.9518ZM18.6567 14.9518L18.4221 14.6279C17.582 15.2363 16.4601 15.5815 15.2593 15.5815C14.0584 15.5815 12.9366 15.2363 12.0964 14.6279L18.6567 14.9518ZM17.2114 9.40578L17.2108 9.40543C16.696 9.08365 15.9974 8.91485 15.2963 8.91485C14.5951 8.91485 13.8966 9.08365 13.3817 9.40543L13.3812 9.40578C13.0017 9.64383 12.6783 9.98138 12.6783 10.4259C12.6783 10.8692 12.9998 11.2061 13.3778 11.444C13.8975 11.7832 14.6164 11.9326 15.2963 11.9326C15.9762 11.9326 16.695 11.7832 17.2147 11.444C17.5928 11.2061 17.9142 10.8692 17.9143 10.426C17.9143 9.98143 17.5909 9.64385 17.2114 9.40578ZM18.4982 17.152L18.4982 17.152C18.6086 17.3044 18.5745 17.5174 18.4221 17.6279C17.5819 18.2363 16.4601 18.5815 15.2593 18.5815C14.0584 18.5815 12.9365 18.2363 12.0964 17.6279L11.8618 17.9518L12.0964 17.6279C11.9441 17.5175 11.91 17.3044 12.0204 17.152C12.1308 16.9996 12.3438 16.9656 12.4962 17.0759C13.264 17.632 14.273 17.8965 15.2593 17.8965C16.2455 17.8965 17.2545 17.632 18.0224 17.0759L17.7877 16.7519L18.0224 17.0759C18.1747 16.9655 18.3878 16.9996 18.4982 17.152ZM9.25023 18.5815H4.44444C2.21469 18.5815 0.4 16.7668 0.4 14.5371V4.463C0.4 2.23325 2.21469 0.418555 4.44444 0.418555H14.5185C16.7483 0.418555 18.563 2.23325 18.563 4.463V6.19465C18.5385 6.65484 17.9058 6.65691 17.8815 6.19471V4.463C17.8815 2.60831 16.3732 1.10004 14.5185 1.10004H4.44444C2.58975 1.10004 1.08148 2.60831 1.08148 4.463V14.5371C1.08148 16.3918 2.58975 17.9 4.44444 17.9H9.25016C9.71037 17.9245 9.71241 18.5572 9.25023 18.5815ZM11.3704 3.75189C11.5586 3.75189 11.7111 3.90443 11.7111 4.09263C11.7111 4.28083 11.5586 4.43337 11.3704 4.43337H7.60162C7.13943 4.40901 7.14149 3.77638 7.60169 3.75189H11.3704ZM11.9926 10.4328C12.0187 9.73861 12.3928 9.20736 12.994 8.83349C13.6069 8.45237 14.4403 8.24948 15.2958 8.24936C16.1513 8.24923 16.9848 8.45188 17.5978 8.83294C18.1992 9.20671 18.5736 9.73809 18.6 10.4328C18.5975 10.9947 18.2838 11.5294 17.6976 11.9397C17.1082 12.3523 16.2654 12.6186 15.2963 12.6186C14.3272 12.6186 13.4844 12.3523 12.895 11.9397C12.3088 11.5294 11.9951 10.9947 11.9926 10.4328Z" fill="#041E42" stroke="#041E42" stroke-width="0.8"/>
</g>
<defs>
<clipPath id="clip0_1232_1640">
<rect width="19" height="19" fill="white"/>
</clipPath>
</defs>
</svg>
