<svg width="23" height="23" viewBox="0 0 23 23" fill="none" xmlns="http://www.w3.org/2000/svg">
<path d="M4.90284 19.1667C4.46137 19.1667 4.09305 19.0191 3.79788 18.7239C3.50271 18.4288 3.35481 18.0601 3.35417 17.618V3.35417C3.35417 3.21809 3.40017 3.10437 3.49217 3.01301C3.58417 2.92165 3.69821 2.87565 3.8343 2.87501C3.97038 2.87437 4.0841 2.92037 4.17546 3.01301C4.26682 3.10565 4.31251 3.21937 4.31251 3.35417V17.619C4.31251 17.7659 4.37384 17.901 4.49651 18.0243C4.61917 18.1476 4.7543 18.209 4.90188 18.2083H19.1667C19.3028 18.2083 19.4165 18.2543 19.5078 18.3463C19.5992 18.4383 19.6452 18.5524 19.6458 18.6885C19.6465 18.8245 19.6005 18.9383 19.5078 19.0296C19.4152 19.121 19.3015 19.1667 19.1667 19.1667H4.90284ZM7.77784 15.8125C7.57914 15.8125 7.41271 15.7454 7.27855 15.6113C7.14438 15.4771 7.0773 15.311 7.0773 15.1129V9.50859C7.0773 9.31053 7.14438 9.14442 7.27855 9.01026C7.41271 8.87609 7.57882 8.80901 7.77688 8.80901H8.21963C8.43877 8.80901 8.62277 8.88344 8.77163 9.0323C8.91985 9.1818 8.99396 9.36708 8.99396 9.58813V15.0401C8.99396 15.2611 8.91953 15.4448 8.77067 15.5911C8.62245 15.7381 8.43877 15.8115 8.21963 15.8115L7.77784 15.8125ZM12.0903 15.8125C11.8916 15.8125 11.7252 15.7454 11.591 15.6113C11.4569 15.4771 11.3898 15.311 11.3898 15.1129V4.79167C11.3898 4.57253 11.4639 4.38885 11.6121 4.24063C11.7604 4.09241 11.944 4.01798 12.1632 4.01734H12.6059C12.804 4.01734 12.9701 4.08442 13.1043 4.21859C13.2384 4.35276 13.3055 4.51919 13.3055 4.71788V15.0391C13.3055 15.2583 13.2317 15.4419 13.0841 15.5902C12.9353 15.7384 12.7513 15.8125 12.5321 15.8125H12.0903ZM16.4028 15.8125C16.2041 15.8125 16.0377 15.7454 15.9035 15.6113C15.7694 15.4771 15.7023 15.311 15.7023 15.1129V13.4167C15.7023 13.1975 15.7764 13.0139 15.9246 12.8656C16.0729 12.7174 16.2565 12.643 16.4757 12.6423H16.9184C17.1165 12.6423 17.2826 12.7094 17.4168 12.8436C17.5509 12.9778 17.618 13.1442 17.618 13.3429V15.0391C17.618 15.2583 17.5442 15.4419 17.3966 15.5902C17.249 15.7384 17.065 15.8125 16.8446 15.8125H16.4028Z" fill="#041E42"/>
</svg>
