<svg width="17" height="17" viewBox="0 0 17 17" fill="none" xmlns="http://www.w3.org/2000/svg">
<path fill-rule="evenodd" clip-rule="evenodd" d="M7.10854 2.08332C5.7757 2.08332 4.49746 2.61279 3.555 3.55524C2.61254 4.4977 2.08308 5.77595 2.08308 7.10878C2.08308 8.44161 2.61254 9.71986 3.555 10.6623C4.49746 11.6048 5.7757 12.1342 7.10854 12.1342C8.44137 12.1342 9.71962 11.6048 10.6621 10.6623C11.6045 9.71986 12.134 8.44161 12.134 7.10878C12.134 5.77595 11.6045 4.4977 10.6621 3.55524C9.71962 2.61279 8.44137 2.08332 7.10854 2.08332ZM0.575439 7.10878C0.575439 5.3761 1.26375 3.71438 2.48894 2.48918C3.71413 1.26399 5.37585 0.575684 7.10854 0.575684C8.84122 0.575684 10.5029 1.26399 11.7281 2.48918C12.9533 3.71438 13.6416 5.3761 13.6416 7.10878C13.6416 8.84146 12.9533 10.5032 11.7281 11.7284C10.5029 12.9536 8.84122 13.6419 7.10854 13.6419C5.37585 13.6419 3.71413 12.9536 2.48894 11.7284C1.26375 10.5032 0.575439 8.84146 0.575439 7.10878Z" fill="white"/>
<path fill-rule="evenodd" clip-rule="evenodd" d="M11.0989 11.0989C11.2402 10.9577 11.4318 10.8784 11.6316 10.8784C11.8313 10.8784 12.0229 10.9577 12.1643 11.0989L16.1846 15.1192C16.2587 15.1883 16.3181 15.2715 16.3593 15.3639C16.4005 15.4564 16.4227 15.5562 16.4244 15.6574C16.4262 15.7587 16.4076 15.8592 16.3697 15.9531C16.3318 16.0469 16.2754 16.1322 16.2038 16.2038C16.1322 16.2754 16.0469 16.3318 15.9531 16.3697C15.8592 16.4076 15.7587 16.4262 15.6574 16.4244C15.5562 16.4227 15.4564 16.4005 15.3639 16.3593C15.2715 16.3181 15.1883 16.2587 15.1192 16.1846L11.0989 12.1643C10.9577 12.0229 10.8784 11.8313 10.8784 11.6316C10.8784 11.4318 10.9577 11.2402 11.0989 11.0989Z" fill="white"/>
</svg>
