<svg width="17" height="17" viewBox="0 0 17 17" fill="none" xmlns="http://www.w3.org/2000/svg">
<path d="M5.861 16.0802H2.98225C1.92175 16.0802 1.0625 15.2209 1.0625 14.1604V8.51317C1.06315 8.10177 1.1517 7.69525 1.32222 7.32086C1.49274 6.94646 1.7413 6.61282 2.05125 6.3423L7.24 1.82292C7.5894 1.51897 8.03689 1.35156 8.5 1.35156C8.96311 1.35156 9.4106 1.51897 9.76 1.82292L14.9488 6.34317C15.2586 6.6136 15.5071 6.9471 15.6776 7.32133C15.8481 7.69557 15.9367 8.10192 15.9375 8.51317V14.1604C15.9375 14.6694 15.7354 15.1576 15.3755 15.5176C15.0157 15.8776 14.5276 16.0799 14.0186 16.0802H11.3787V10.3218C11.3787 9.5273 10.7348 8.88242 9.93938 8.88242H7.30125C6.50588 8.88242 5.86187 9.5273 5.86187 10.3218L5.861 16.0802ZM5.861 16.0802H11.3796" stroke="#041E42" stroke-width="1.5" stroke-linejoin="round"/>
</svg>
