<svg width="21" height="21" viewBox="0 0 21 21" fill="none" xmlns="http://www.w3.org/2000/svg">
<path d="M7.861 18.0802H4.98225C3.92175 18.0802 3.0625 17.2209 3.0625 16.1604V10.5132C3.06315 10.1018 3.1517 9.69525 3.32222 9.32086C3.49274 8.94646 3.7413 8.61282 4.05125 8.3423L9.24 3.82292C9.5894 3.51897 10.0369 3.35156 10.5 3.35156C10.9631 3.35156 11.4106 3.51897 11.76 3.82292L16.9488 8.34317C17.2586 8.6136 17.5071 8.9471 17.6776 9.32133C17.8481 9.69557 17.9367 10.1019 17.9375 10.5132V16.1604C17.9375 16.6694 17.7354 17.1576 17.3755 17.5176C17.0157 17.8776 16.5276 18.0799 16.0186 18.0802H13.3787V12.3218C13.3787 11.5273 12.7348 10.8824 11.9394 10.8824H9.30125C8.50588 10.8824 7.86187 11.5273 7.86187 12.3218L7.861 18.0802ZM7.861 18.0802H13.3796" stroke="white" stroke-width="1.5" stroke-linejoin="round"/>
</svg>
