<svg width="19" height="19" viewBox="0 0 19 19" fill="none" xmlns="http://www.w3.org/2000/svg">
<g clip-path="url(#clip0_1232_1647)">
<path d="M19 4.45312V8.01562C18.9608 9.00036 17.5545 8.99962 17.5156 8.01562V4.45312C17.5156 2.81616 16.1838 1.48438 14.5469 1.48438H4.45312C2.81616 1.48438 1.48438 2.81616 1.48438 4.45312V14.5469C1.48438 16.1838 2.81616 17.5156 4.45312 17.5156H8.16406C9.1488 17.5548 9.14806 18.9611 8.16406 19H4.45312C1.99767 19 0 17.0023 0 14.5469V4.45312C0 1.99767 1.99767 0 4.45312 0H14.5469C17.0023 0 19 1.99767 19 4.45312ZM12.1348 4.08203C12.1348 3.67212 11.8025 3.33984 11.3926 3.33984H7.60742C6.62269 3.37903 6.62343 4.78537 7.60742 4.82422H11.3926C11.8025 4.82422 12.1348 4.49194 12.1348 4.08203ZM18.2578 14.7393C17.8722 14.6003 17.4469 14.8003 17.3079 15.1859C15.9106 18.8638 10.532 17.9311 10.4648 13.9902C10.4311 11.4725 13.1753 9.68017 15.4614 10.8052C15.8338 10.9764 16.2745 10.8134 16.4458 10.441C16.617 10.0686 16.454 9.62784 16.0816 9.45658C12.8377 7.87227 8.92981 10.4094 8.98051 13.9903C9.07606 19.5903 16.7193 20.9159 18.7043 15.6891C18.8434 15.3036 18.6434 14.8783 18.2578 14.7393ZM15.8887 14.9499L18.7851 12.0263C19.0736 11.735 19.0714 11.2651 18.7802 10.9767C18.489 10.6882 18.019 10.6904 17.7306 10.9816L14.8327 13.9067C14.6833 14.0658 14.4148 14.0661 14.2658 13.909L13.2224 12.8408C12.936 12.5476 12.4661 12.5421 12.1728 12.8285C11.8796 13.1149 11.8741 13.5848 12.1605 13.878L13.2061 14.9485C13.564 15.3117 14.0406 15.5118 14.5482 15.5118C15.0558 15.5118 15.5323 15.3117 15.8887 14.9499Z" fill="#041E42"/>
</g>
<defs>
<clipPath id="clip0_1232_1647">
<rect width="19" height="19" fill="white"/>
</clipPath>
</defs>
</svg>
