<svg width="19" height="19" viewBox="0 0 19 19" fill="none" xmlns="http://www.w3.org/2000/svg">
<g clip-path="url(#clip0_1232_1661)">
<path d="M9.49815 19C8.26968 19 7.27024 18.0006 7.27024 16.7721V16.7535C7.27024 16.4891 7.10986 16.2552 6.86164 16.1578C6.18183 15.8909 5.54813 15.5219 4.97801 15.061C4.76799 14.8912 4.48368 14.8658 4.25372 14.9964C4.25297 14.9968 4.25012 14.9984 4.24937 14.9988C3.17949 15.6017 1.81627 15.2245 1.21069 14.1579C0.917049 13.6408 0.842822 13.0406 1.00171 12.4678C1.16093 11.8939 1.53485 11.4165 2.05462 11.1236L2.06387 11.1184C2.28955 10.9902 2.41758 10.7357 2.38253 10.485C2.28803 9.81083 2.29007 9.11538 2.38881 8.44181C2.42609 8.18698 2.29572 7.92754 2.06439 7.79616L2.05224 7.78926C1.53485 7.49773 1.16093 7.0204 1.00171 6.44649C0.842822 5.8737 0.917049 5.27346 1.21069 4.75633C1.81631 3.68975 3.17953 3.31264 4.24937 3.91544L4.29404 3.9408C4.52233 4.07046 4.80631 4.04544 5.01763 3.87708C5.57676 3.43165 6.19623 3.07373 6.85889 2.81325C7.10875 2.715 7.2702 2.48074 7.2702 2.2164C7.39266 -0.739486 11.6042 -0.738112 11.726 2.2164V2.23132C11.726 2.49422 11.8862 2.728 12.1342 2.82696C12.7896 3.08847 13.4022 3.4455 13.955 3.88807C14.1668 4.05762 14.4512 4.08335 14.6796 3.95368L14.7447 3.9167C15.8168 3.31264 17.18 3.68983 17.7856 4.75636C18.0792 5.27346 18.1534 5.8737 17.9945 6.44649C17.8353 7.0204 17.4614 7.49773 16.9416 7.79059L16.8907 7.81952C16.6639 7.94833 16.5357 8.20279 16.572 8.45273C16.6681 9.11627 16.6705 9.80117 16.5794 10.4654C16.545 10.7165 16.673 10.971 16.8979 11.0988L16.9428 11.1243C17.4619 11.4172 17.8354 11.8943 17.9945 12.4677C18.528 14.3636 16.4579 15.9686 14.7469 14.9988L14.721 14.9841C14.4903 14.8531 14.2045 14.8798 13.9924 15.0518C13.4291 15.509 12.803 15.8765 12.1316 16.1441C11.8852 16.2423 11.7261 16.4756 11.7261 16.7386V16.7721C11.7261 18.0006 10.7266 19 9.49815 19ZM4.56811 13.4265C5.04496 13.4265 5.51906 13.5885 5.91173 13.9059C6.36381 14.2713 6.86602 14.5638 7.4045 14.7753C8.22523 15.0975 8.75551 15.8741 8.75551 16.7535V16.7721C8.79643 17.7576 10.2002 17.7568 10.2408 16.7721V16.7386C10.2408 15.8639 10.7671 15.089 11.5817 14.7643C12.1136 14.5523 12.6098 14.261 13.0565 13.8986C13.7468 13.3382 14.688 13.2573 15.4542 13.6925L15.4779 13.7059C15.8349 13.907 16.2915 13.7813 16.494 13.4245C16.5913 13.2532 16.6159 13.0544 16.5633 12.8648C16.5104 12.6741 16.3858 12.5153 16.2125 12.4177C16.2117 12.4173 16.211 12.4169 16.2103 12.4164L16.1644 12.3903C15.4047 11.9589 14.99 11.1242 15.1079 10.2639C15.1801 9.73693 15.1783 9.19191 15.102 8.66549C14.979 7.8154 15.403 6.95643 16.1572 6.52807L16.2103 6.49792C16.3859 6.399 16.5105 6.24023 16.5634 6.04952C16.616 5.85992 16.5913 5.66116 16.4941 5.48983C16.2915 5.13307 15.8348 5.00745 15.476 5.20952L15.4131 5.24528C14.6527 5.67705 13.7162 5.59944 13.0269 5.04763C12.5885 4.69669 12.103 4.41371 11.5838 4.20652C10.768 3.88098 10.2408 3.1057 10.2408 2.2314V2.21643C10.2 1.23132 8.79628 1.23136 8.75555 2.21643C8.75555 3.09557 8.22438 3.87244 7.40239 4.19556C6.87745 4.4019 6.38657 4.68563 5.94322 5.03879C5.25472 5.58734 4.31955 5.66335 3.56076 5.23243L3.51828 5.20833C3.16152 5.00734 2.70491 5.13303 2.50232 5.48976C2.40503 5.66112 2.38042 5.85989 2.43299 6.04948C2.48591 6.24015 2.61048 6.39897 2.78382 6.49662L2.79819 6.50475C3.55757 6.93604 3.98381 7.80095 3.85852 8.65684C3.78021 9.19117 3.77858 9.7444 3.85358 10.2792C3.97411 11.1407 3.55961 11.9771 2.79752 12.4099L2.78608 12.4163C2.61052 12.5153 2.48594 12.6741 2.43303 12.8648C2.38042 13.0544 2.40503 13.2531 2.50232 13.4245C2.70484 13.7811 3.16148 13.9069 3.52036 13.7048C3.84868 13.5183 4.20916 13.4265 4.56811 13.4265ZM9.49815 13.3931C7.34832 13.3931 5.5993 11.6441 5.5993 9.49428C5.81348 4.32192 13.1836 4.32344 13.397 9.49431C13.397 11.6441 11.648 13.3931 9.49815 13.3931ZM9.49815 7.08071C8.1673 7.08071 7.08458 8.16343 7.08458 9.49428C7.21717 12.6962 11.7796 12.6953 11.9117 9.49428C11.9117 8.1634 10.829 7.08071 9.49815 7.08071Z" fill="#041E42"/>
</g>
<defs>
<clipPath id="clip0_1232_1661">
<rect width="19" height="19" fill="white"/>
</clipPath>
</defs>
</svg>
