<svg width="22" height="25" viewBox="0 0 22 25" fill="none" xmlns="http://www.w3.org/2000/svg">
<path d="M21.0567 6.73634C20.7654 6.04603 20.3412 5.41971 19.8083 4.89301C19.2778 4.35093 18.6428 3.92227 17.9417 3.63301C17.5147 3.45632 17.0682 3.331 16.6117 3.25967V1.70801C16.6117 1.47594 16.5195 1.25338 16.3554 1.08929C16.1913 0.925195 15.9687 0.833008 15.7367 0.833008C15.5046 0.833008 15.282 0.925195 15.1179 1.08929C14.9538 1.25338 14.8617 1.47594 14.8617 1.70801V3.18967H7.14999V1.70801C7.14999 1.47594 7.0578 1.25338 6.89371 1.08929C6.72962 0.925195 6.50705 0.833008 6.27499 0.833008C6.04293 0.833008 5.82037 0.925195 5.65627 1.08929C5.49218 1.25338 5.39999 1.47594 5.39999 1.70801V3.25967C4.19219 3.43791 3.07469 4.0028 2.21499 4.86967C1.68102 5.40216 1.25768 6.03503 0.969349 6.73182C0.681018 7.42862 0.533398 8.17558 0.534991 8.92967V18.3797C0.533115 19.1396 0.679751 19.8926 0.966658 20.5963C1.24901 21.2955 1.66964 21.9304 2.20332 22.463C2.73299 23.0043 3.36766 23.4337 4.06999 23.723C4.76766 24.0158 5.51666 24.1663 6.27499 24.1663H15.7367C17.256 24.1602 18.7112 23.5531 19.7845 22.4776C20.8578 21.4022 21.4619 19.9457 21.465 18.4263V8.96467C21.4855 8.20157 21.3464 7.4426 21.0567 6.73634ZM16.39 17.9247H5.69166C5.45959 17.9247 5.23703 17.8325 5.07294 17.6684C4.90884 17.5043 4.81666 17.2817 4.81666 17.0497C4.81666 16.8176 4.90884 16.5951 5.07294 16.431C5.23703 16.2669 5.45959 16.1747 5.69166 16.1747H16.3083C16.5404 16.1747 16.7629 16.2669 16.927 16.431C17.0911 16.5951 17.1833 16.8176 17.1833 17.0497C17.1833 17.2817 17.0911 17.5043 16.927 17.6684C16.7629 17.8325 16.5404 17.9247 16.3083 17.9247H16.39ZM16.39 12.0097H5.69166C5.45959 12.0097 5.23703 11.9175 5.07294 11.7534C4.90884 11.5893 4.81666 11.3667 4.81666 11.1347C4.81666 10.9026 4.90884 10.6801 5.07294 10.516C5.23703 10.3519 5.45959 10.2597 5.69166 10.2597H16.3083C16.5404 10.2597 16.7629 10.3519 16.927 10.516C17.0911 10.6801 17.1833 10.9026 17.1833 11.1347C17.1833 11.3667 17.0911 11.5893 16.927 11.7534C16.7629 11.9175 16.5404 12.0097 16.3083 12.0097H16.39Z" fill="#041E42"/>
</svg>
